<svg xmlns="http://www.w3.org/2000/svg" width="10" height="14" viewBox="0 0 10 14"> <defs> <style> .icon-list-item-05 {fill: #464646; fill-rule: evenodd; } </style> </defs> <path id="icon-list-item-05.svg" class="icon-list-item-05" d="M1420.53,796.044h4.94a0.467,0.467,0,1,1,0,.934h-4.94A0.467,0.467,0,1,1,1420.53,796.044ZM1418,805h10V793l-2.06-2H1418v14Zm6-10v-3h-5v12h8v-9h-3Zm1-3v2h2Zm-4.47,6.044h4.94a0.467,0.467,0,1,1,0,.934h-4.94A0.467,0.467,0,1,1,1420.53,798.044Zm0,2h4.94a0.467,0.467,0,1,1,0,.934h-4.94A0.467,0.467,0,1,1,1420.53,800.044Zm0,2h4.94a0.467,0.467,0,1,1,0,.934h-4.94A0.467,0.467,0,1,1,1420.53,802.044Z" transform="translate(-1418 -791)"/> </svg>