<svg xmlns="http://www.w3.org/2000/svg" width="18" height="16" viewBox="0 0 18 16"> <defs> <style> .icon-list-item-04 {fill: #464646; fill-rule: evenodd; } </style> </defs> <path id="icon-list-item-04.svg" class="icon-list-item-04" d="M1416,793.805a0.361,0.361,0,0,0,.63,0v-1.53l0.76,1.275s0.38,0.728.76,0.127v-2.55a0.4,0.4,0,0,0-.5,0v1.53l-0.89-1.4a0.493,0.493,0,0,0-.76,0v2.55Zm2.66-.128v-2.3a0.2,0.2,0,0,1,.25-0.255h1.27a0.329,0.329,0,0,1,0,.51h-0.89v0.638h0.76a0.223,0.223,0,0,1,0,.382h-0.76v0.765h0.89s0.28,0.319,0,.51h-1.27S1418.72,794.06,1418.66,793.677Zm1.9-2.55,0.63,2.805a0.6,0.6,0,0,0,.63-0.127l0.51-1.4,0.38,1.4a0.444,0.444,0,0,0,.63,0l0.76-2.55a0.46,0.46,0,0,0-.51-0.128l-0.5,1.658-0.51-1.658s-0.39-.223-0.5.128l-0.51,1.53-0.51-1.658A0.413,0.413,0,0,0,1420.56,791.127Zm5.31,0.51s0.22-.526-0.76-0.637a0.858,0.858,0,0,0-.88.765,0.748,0.748,0,0,0,.5.892,0.767,0.767,0,0,1,.64.51,0.44,0.44,0,0,1-.76.128s-0.43-.271-0.51.127a0.579,0.579,0,0,0,.63.51,0.97,0.97,0,0,0,1.27-.765,0.892,0.892,0,0,0-.76-0.892,0.463,0.463,0,0,1-.38-0.383,0.309,0.309,0,0,1,.38-0.382S1425.62,791.908,1425.87,791.637ZM1414,795h-3s-1.03.079-1,.783v8.1s0.21,2.248,2.23,2.114h13.88a1.965,1.965,0,0,0,1.89-2.231V790.5a1.146,1.146,0,0,0-1-.5h-12s-1.09.325-1,1v4Zm-3,1h3v7.886a0.967,0.967,0,0,1-1,1.114s-1.73.124-2-1v-8Zm4-5h12v13a0.886,0.886,0,0,1-1,1h-12a2.106,2.106,0,0,0,1-1V791Zm1,4h10v1h-10v-1Zm0,2h6v1h-6v-1Zm0,2h6v1h-6v-1Zm0,2h10v1h-10v-1Zm0,2h10v1h-10v-1Zm7-6h3v3h-3v-3Zm1,1h1v1h-1v-1Z" transform="translate(-1410 -790)"/> </svg>