<svg xmlns="http://www.w3.org/2000/svg" width="18" height="13" viewBox="0 0 18 13"> <defs> <style> .icon-keyborad {fill: #797979; fill-rule: evenodd; } </style> </defs> <path id="icon_icon-keyborad.svg" data-name="icon/icon-keyborad.svg" class="icon-keyborad" d="M1223,175h18v13h-18V175Zm2,2h2v2h-2v-2Zm3,0h2v2h-2v-2Zm3,0h2v2h-2v-2Zm3,0h2v2h-2v-2Zm3,0h2v2h-2v-2Zm-10,3h2v2h-2v-2Zm3,0h2v2h-2v-2Zm3,0h2v2h-2v-2Zm3,0h2v2h-2v-2Zm-11,4h2v2h-2v-2Zm4,0h10v2h-10v-2Z" transform="translate(-1223 -175)"/> </svg>