<svg id="icon-img-type.svg" xmlns="http://www.w3.org/2000/svg" width="18" height="18" viewBox="0 0 18 18">
  <defs>
    <style> .icon-img-type-1 { fill: #09c; } .icon-img-type-1, .icon-img-type-2 { fill-rule: evenodd; } .icon-img-type-2 { fill: #fff; }
    </style>
  </defs>
  <path id="icon-img-type" class="icon-img-type-1" d="M682,723h18v18H682V723Zm3,3h5v5h-5v-5Zm7,0h5v5h-5v-5Zm-7,7h5v5h-5v-5Zm7,0h5v5h-5v-5Z" transform="translate(-682 -723)"/>
  <path id="icon-img-type-2" data-name="icon" class="icon-img-type-2" d="M692,726h5v5h-5v-5Zm-7,0h5v5h-5v-5Zm0,7h5v5h-5v-5Zm7,0h5v5h-5v-5Z" transform="translate(-682 -723)"/>
</svg>
