<svg xmlns="http://www.w3.org/2000/svg" width="30" height="23" viewBox="0 0 30 23"> <defs> <style> .icon-url-copy {fill: #b3b3b3; fill-rule: evenodd; } </style> </defs> <path id="icon-url-copy.svg" class="icon-url-copy" d="M842,435H830a3.622,3.622,0,0,1-3-3v-7a2.982,2.982,0,0,1,3-3h26v-1H829.853s-3.857.13-3.853,4v7a3.945,3.945,0,0,0,4,4h13Zm7,0a28.621,28.621,0,0,1,3,1h4v-1h-7Zm-5.873-1.177,9.655,3.867-3.42,1.221,2.414,2.443-1.408,1.425-2.414-2.646L846.748,444ZM829,427l1,4h1l1-2,1,2h1l1-4h-1l-1,2v-2h-2v2l-1-2h-1Zm6.283,0.106,0.8,3.46H837.3l0.6-2.239,0.8,2.239h1l1.006-3.46h-1.207l-0.4,2.239-0.6-2.239H837.3l-0.4,2.035-0.6-2.035h-1.006Zm5.833,0,1.006,3.46h1l0.6-2.442,0.8,2.442h1.006l1.006-3.46H845.34l-0.4,2.239-0.6-2.239h-1.207l-0.4,2.239-0.6-2.239h-1.006Zm6.634-.2a0.61,0.61,0,1,1-.594.609A0.6,0.6,0,0,1,847.75,426.906Zm-0.2,2.438a0.609,0.609,0,1,1-.61.609A0.609,0.609,0,0,1,847.547,429.344ZM850,426l-1,5h1l1-5h-1Zm3,0-1,5h1l1-5h-1Z" transform="translate(-826 -421)"/> </svg>