<svg xmlns="http://www.w3.org/2000/svg" width="15" height="17" viewBox="0 0 15 17">
  <defs>
    <style>
      .icon-list-item-03 {
        fill: #464646;
        fill-rule: evenodd;
      }
    </style>
  </defs>
  <path id="icon-list-item-03.svg" class="icon-list-item-03" d="M1387,789h15v17h-15V789Zm1,1h13v3h-13v-3Zm0,4h13v7h-13v-7Zm0,8h13v3h-13v-3Zm0.26-10.719h0.67a0.29,0.29,0,0,1,.29.29v0.014a0.29,0.29,0,0,1-.29.29h-0.67a0.29,0.29,0,0,1-.29-0.29v-0.014A0.29,0.29,0,0,1,1388.26,791.281Zm1.87,0h0.64a0.29,0.29,0,0,1,.29.29v0.014a0.29,0.29,0,0,1-.29.29h-0.64a0.29,0.29,0,0,1-.29-0.29v-0.014A0.29,0.29,0,0,1,1390.13,791.281Zm1.88,0h0.64a0.29,0.29,0,0,1,.29.29v0.014a0.29,0.29,0,0,1-.29.29h-0.64a0.29,0.29,0,0,1-.29-0.29v-0.014A0.29,0.29,0,0,1,1392.01,791.281Zm1.84,0h0.67a0.29,0.29,0,0,1,.29.29v0.014a0.29,0.29,0,0,1-.29.29h-0.67a0.29,0.29,0,0,1-.29-0.29v-0.014A0.29,0.29,0,0,1,1393.85,791.281Zm1.88,0h0.64a0.29,0.29,0,0,1,.29.29v0.014a0.29,0.29,0,0,1-.29.29h-0.64a0.29,0.29,0,0,1-.29-0.29v-0.014A0.29,0.29,0,0,1,1395.73,791.281Zm1.97,0h0.6a0.29,0.29,0,0,1,.29.29v0.014a0.29,0.29,0,0,1-.29.29h-0.6a0.29,0.29,0,0,1-.29-0.29v-0.014A0.29,0.29,0,0,1,1397.7,791.281Zm1.84,0h0.64a0.29,0.29,0,0,1,.29.29v0.014a0.29,0.29,0,0,1-.29.29h-0.64a0.29,0.29,0,0,1-.29-0.29v-0.014A0.29,0.29,0,0,1,1399.54,791.281Zm-11.28,11.844h0.67a0.29,0.29,0,0,1,.29.289v0.015a0.29,0.29,0,0,1-.29.29h-0.67a0.29,0.29,0,0,1-.29-0.29v-0.015A0.29,0.29,0,0,1,1388.26,803.125Zm1.87,0h0.64a0.29,0.29,0,0,1,.29.289v0.015a0.29,0.29,0,0,1-.29.29h-0.64a0.29,0.29,0,0,1-.29-0.29v-0.015A0.29,0.29,0,0,1,1390.13,803.125Zm1.88,0h0.64a0.29,0.29,0,0,1,.29.289v0.015a0.29,0.29,0,0,1-.29.29h-0.64a0.29,0.29,0,0,1-.29-0.29v-0.015A0.29,0.29,0,0,1,1392.01,803.125Zm1.84,0h0.67a0.29,0.29,0,0,1,.29.289v0.015a0.29,0.29,0,0,1-.29.29h-0.67a0.29,0.29,0,0,1-.29-0.29v-0.015A0.29,0.29,0,0,1,1393.85,803.125Zm1.88,0h0.64a0.29,0.29,0,0,1,.29.289v0.015a0.29,0.29,0,0,1-.29.29h-0.64a0.29,0.29,0,0,1-.29-0.29v-0.015A0.29,0.29,0,0,1,1395.73,803.125Zm1.97,0h0.6a0.29,0.29,0,0,1,.29.289v0.015a0.29,0.29,0,0,1-.29.29h-0.6a0.29,0.29,0,0,1-.29-0.29v-0.015A0.29,0.29,0,0,1,1397.7,803.125Zm1.84,0h0.64a0.29,0.29,0,0,1,.29.289v0.015a0.29,0.29,0,0,1-.29.29h-0.64a0.29,0.29,0,0,1-.29-0.29v-0.015A0.29,0.29,0,0,1,1399.54,803.125Zm-7.51-8.422V800.3s-0.02.541,0.65,0.244l5.21-2.838a0.3,0.3,0,0,0,0-.406l-5.21-2.838S1392.05,793.959,1392.03,794.7ZM1393,796v3l3.16-1.541Z" transform="translate(-1387 -789)"/>
</svg>
